<?xml version="1.0" standalone="no"?>
<!DOCTYPE svg PUBLIC "-//W3C//DTD SVG 20010904//EN"
 "http://www.w3.org/TR/2001/REC-SVG-20010904/DTD/svg10.dtd">
<svg version="1.0" xmlns="http://www.w3.org/2000/svg"
 width="2859.000000pt" height="2859.000000pt" viewBox="0 0 2859.000000 2859.000000"
 preserveAspectRatio="xMidYMid meet">

<g transform="translate(0.000000,2859.000000) scale(0.100000,-0.100000)"
fill="#000000" stroke="none">
<path d="M14255 18945 c-66 -17 -51 -17 65 -1 81 12 87 14 40 14 -30 0 -77 -6
-105 -13z"/>
<path d="M14350 18676 c-56 -7 -73 -12 -50 -14 19 -1 78 4 130 11 114 17 48
20 -80 3z"/>
<path d="M14203 18653 c9 -2 25 -2 35 0 9 3 1 5 -18 5 -19 0 -27 -2 -17 -5z"/>
<path d="M6890 14796 c0 -2 8 -10 18 -17 15 -13 16 -12 3 4 -13 16 -21 21 -21
13z"/>
<path d="M21242 12648 c-13 -16 -63 -130 -59 -134 2 -2 20 30 40 71 36 73 41
89 19 63z"/>
<path d="M9140 11876 c0 -2 8 -10 18 -17 15 -13 16 -12 3 4 -13 16 -21 21 -21
13z"/>
</g>
</svg>
