<svg xmlns="http://www.w3.org/2000/svg" xmlns:svgjs="http://svgjs.com/svgjs" xmlns:xlink="http://www.w3.org/1999/xlink" width="288" height="288"><svg xmlns="http://www.w3.org/2000/svg" width="288" height="288" version="1.0" viewBox="0 0 2859 2859"><g fill="#fff" class="color000 svgShape" transform="matrix(.1 0 0 -.1 0 2859)"><path d="M14190 26233 c0 -9 -449 -32 -745 -39 -113 -2 -239 -15 -510 -54-198 -28 -423 -59 -500 -70 -77 -10 -188 -30 -247 -44 -59 -13 -117 -22 -129
-19 -13 4 -20 2 -16 -4 3 -5 -35 -17 -91 -27 -53 -10 -162 -31 -242 -47 -80
-16 -203 -41 -275 -55 -71 -14 -184 -43 -250 -64 -66 -22 -160 -51 -210 -65
-551 -158 -628 -183 -985 -323 -497 -195 -718 -292 -1130 -498 -949 -475
-1778 -1040 -2615 -1783 -163 -145 -704 -683 -856 -851 -1735 -1925 -2782
-4270 -3039 -6810 -27 -269 -50 -615 -50 -764 0 -95 -3 -117 -13 -113 -11 4
-12 -3 -6 -36 8 -40 3 -280 -6 -340 -3 -15 -1 -26 4 -23 5 3 12 -94 15 -217
35 -1123 207 -2167 527 -3197 536 -1721 1477 -3321 2724 -4630 61 -64 133
-140 161 -170 28 -30 87 -89 130 -130 44 -41 120 -113 169 -160 289 -275 687
-611 1051 -886 94 -71 196 -151 227 -179 31 -27 108 -81 172 -120 158 -96 571
-356 675 -425 47 -31 162 -96 255 -145 94 -49 220 -115 280 -147 289 -154 651
-326 931 -444 86 -36 164 -70 173 -74 73 -41 348 -150 466 -186 66 -20 122
-40 125 -43 3 -4 176 -60 385 -124 260 -80 453 -133 610 -167 127 -27 250 -56
276 -64 110 -34 520 -113 819 -157 179 -26 397 -59 485 -74 202 -33 960 -76
1405 -79 122 -1 510 13 519 18 4 3 109 7 232 10 205 5 263 11 694 70 259 36
511 73 560 81 426 76 936 189 1136 251 97 30 184 54 193 54 37 0 647 195 756
242 129 56 372 154 625 253 105 42 341 153 620 294 248 125 468 235 490 244
22 9 199 115 393 234 194 120 392 241 439 268 47 28 153 102 234 165 82 63
170 131 196 149 133 96 532 420 718 582 116 101 233 202 260 224 28 21 82 67
120 101 39 34 100 86 136 115 39 31 212 219 406 439 412 469 448 511 921 1093
46 56 156 219 245 362 88 143 167 265 173 270 39 33 248 398 437 765 121 234
223 427 228 430 10 7 74 144 154 330 20 47 45 103 55 125 95 213 253 595 270
655 12 41 26 80 32 87 16 20 264 833 288 943 12 58 48 215 80 350 162 680 253
1248 309 1930 20 243 34 496 33 606 -1 111 14 220 38 264 11 21 10 22 -7 18
-18 -5 -20 8 -31 366 -13 385 -27 591 -62 906 -154 1363 -576 2724 -1230 3960
-170 323 -198 378 -248 501 -6 15 -123 206 -259 425 -137 220 -262 422 -277
449 -15 28 -61 94 -103 145 -42 52 -107 137 -144 187 -156 209 -437 553 -649
793 -124 141 -251 287 -283 325 -31 39 -84 104 -118 145 -58 69 -724 662 -969
862 -105 86 -418 341 -577 470 -60 49 -228 161 -408 272 -168 105 -308 193
-311 198 -17 28 -332 203 -718 400 -248 127 -458 237 -466 244 -8 7 -51 28
-95 47 -44 19 -105 46 -136 60 -191 87 -780 328 -859 352 -52 15 -106 34 -120
41 -64 35 -758 239 -970 285 -124 27 -234 53 -245 59 -47 23 -584 126 -885
171 -179 26 -395 59 -480 73 -152 25 -404 41 -1180 76 -124 6 -244 13 -267 16
-24 3 -43 2 -43 -3z m445 -203 c28 -5 219 -17 426 -25 304 -13 413 -22 570
-46 107 -16 340 -51 519 -77 312 -47 827 -148 900 -177 19 -8 114 -30 210 -51
135 -28 707 -194 995 -288 6 -2 14 -4 19 -4 5 0 12 -6 16 -12 4 -7 19 -13 34
-13 14 -1 26 -6 26 -10 0 -5 9 -5 20 -2 11 3 20 2 20 -3 0 -5 10 -12 23 -15
23 -5 409 -169 438 -186 10 -6 134 -59 277 -120 143 -60 293 -130 334 -154 40
-24 240 -129 443 -232 333 -170 754 -413 777 -448 4 -7 8 -8 8 -3 0 6 9 0 21
-12 11 -12 24 -20 30 -17 5 4 9 2 9 -3 0 -9 172 -122 186 -122 2 0 17 -8 32
-18 15 -10 79 -53 142 -94 63 -42 133 -94 155 -114 22 -21 162 -135 311 -254
149 -118 461 -382 695 -587 404 -355 433 -382 605 -580 100 -114 205 -237 235
-273 29 -36 103 -121 164 -190 113 -127 468 -566 476 -587 2 -7 67 -92 145
-190 120 -153 250 -347 360 -538 16 -27 93 -153 171 -278 79 -126 143 -233
143 -239 0 -6 103 -211 229 -457 205 -397 355 -717 367 -777 2 -12 58 -148
123 -302 96 -225 139 -345 220 -605 56 -178 101 -330 101 -336 0 -7 25 -95 55
-194 51 -171 221 -927 230 -1027 3 -25 9 -65 15 -90 5 -25 41 -272 79 -550 53
-383 69 -534 70 -625 0 -66 7 -266 16 -445 18 -366 20 -633 6 -706 -6 -27 -18
-213 -26 -414 -14 -310 -22 -399 -51 -590 -18 -124 -54 -355 -78 -515 -40
-268 -165 -889 -185 -926 -5 -9 -24 -83 -41 -165 -29 -137 -286 -994 -311
-1038 -6 -11 -19 -42 -29 -70 -17 -50 -166 -404 -220 -521 -15 -33 -60 -136
-100 -230 -74 -174 -172 -378 -195 -405 -7 -8 -95 -175 -196 -370 -116 -226
-233 -437 -323 -580 -77 -124 -145 -229 -152 -235 -7 -5 -65 -95 -130 -200
-64 -104 -130 -206 -146 -225 -16 -19 -164 -201 -329 -405 -164 -203 -449
-538 -632 -743 -361 -405 -334 -379 -1014 -959 -185 -157 -512 -419 -573 -458
-19 -12 -107 -79 -195 -149 -139 -110 -462 -323 -645 -424 -25 -14 -108 -64
-185 -112 -254 -157 -1332 -692 -1459 -724 -16 -4 -161 -63 -322 -131 -161
-68 -337 -137 -391 -154 -715 -217 -778 -232 -1448 -361 -990 -189 -1470 -240
-2435 -256 -614 -10 -1237 27 -1520 91 -36 8 -182 31 -325 51 -242 33 -842
151 -883 174 -9 5 -96 26 -192 46 -296 61 -693 193 -1337 445 -500 195 -780
312 -858 358 -44 27 -246 133 -450 236 -322 164 -696 378 -760 435 -11 10
-130 86 -265 170 -135 83 -261 167 -280 185 -19 19 -170 141 -336 272 -165
131 -491 405 -725 610 -404 355 -433 382 -605 580 -100 114 -205 237 -235 273
-29 36 -103 121 -164 190 -117 132 -405 487 -470 580 -21 30 -95 127 -165 215
-109 137 -239 333 -346 520 -16 28 -93 153 -171 278 -79 126 -143 233 -143
239 0 6 -103 211 -229 457 -205 397 -355 717 -367 777 -2 12 -58 148 -123 302
-96 225 -139 345 -220 605 -56 178 -101 330 -101 336 0 7 -25 95 -55 194 -51
171 -221 927 -230 1027 -3 25 -9 65 -15 90 -5 25 -41 272 -79 550 -53 383 -69
534 -70 625 0 66 -7 266 -16 445 -18 366 -20 633 -6 706 6 27 18 213 26 414
14 310 22 399 51 590 18 124 54 356 78 515 40 268 165 889 185 926 5 9 24 83
41 165 29 137 286 994 311 1038 6 11 19 42 29 70 17 50 166 404 220 521 15 33
60 137 100 230 74 174 172 378 195 405 7 8 95 175 196 370 116 226 233 437
323 580 77 124 145 230 152 235 7 6 65 96 130 200 64 105 130 206 146 225 16
19 164 202 329 405 164 204 449 538 632 743 323 362 339 379 584 590 546 471
825 701 1003 826 30 22 124 94 208 160 147 117 273 198 804 518 308 186 1398
728 1463 728 7 0 151 59 320 131 171 72 369 148 444 171 75 22 207 62 294 89
87 27 164 49 171 49 7 0 103 27 212 59 191 58 966 231 1030 231 16 0 45 5 64
10 63 18 1110 161 1143 156 18 -3 246 5 507 17 484 23 626 24 715 7z" class="color000 svgShape"/><path d="M13625 25361 c-26 -30 -16 -83 57 -286 107 -300 219 -542 303 -660
28 -38 141 -178 250 -310 110 -132 291 -355 402 -495 112 -140 252 -304 312
-365 130 -132 174 -187 239 -302 157 -276 263 -734 303 -1308 14 -208 6 -591
-15 -727 -60 -376 -196 -603 -475 -790 -131 -87 -262 -154 -430 -219 -36 -14
-297 -20 -410 -9 -84 8 -249 42 -272 55 -11 8 80 384 107 437 37 75 100 153
163 205 51 41 55 48 53 82 -3 39 -32 71 -64 71 -11 0 -35 -7 -54 -16 -41 -20
-154 -128 -177 -169 -72 -130 -109 -238 -148 -433 -13 -59 -24 -109 -25 -110
-6 -8 -148 83 -235 150 -181 140 -414 398 -472 525 -32 71 -28 168 17 392 49
243 75 320 156 476 38 72 78 160 89 198 74 243 83 553 27 937 -21 145 -31 182
-79 305 -68 176 -142 446 -162 593 -19 145 -20 471 0 655 37 350 90 542 181
648 21 25 54 64 72 85 44 52 142 254 142 292 0 54 -53 86 -95 58 -14 -10 -46
-62 -78 -128 -35 -74 -72 -134 -107 -173 -52 -58 -120 -156 -125 -179 -1 -6
-9 -27 -18 -47 -21 -48 -62 -214 -81 -329 -34 -210 -41 -311 -41 -575 0 -238
3 -285 24 -400 28 -158 73 -318 142 -502 68 -182 74 -209 100 -408 16 -121 22
-222 22 -350 0 -277 -36 -443 -133 -616 -87 -155 -123 -266 -180 -566 -36
-190 -43 -262 -29 -317 5 -23 11 -49 14 -59 2 -9 7 -23 12 -30 4 -6 8 -17 9
-24 2 -13 81 -137 110 -173 124 -152 288 -315 401 -399 37 -27 79 -58 93 -69
32 -24 162 -98 188 -106 17 -6 18 -12 9 -74 -11 -87 -14 -514 -4 -617 15 -150
65 -306 122 -382 14 -17 25 -34 25 -36 0 -2 -100 -7 -222 -11 -194 -5 -241 -4
-363 14 -261 37 -326 25 -368 -69 -30 -68 -32 -236 -8 -641 29 -486 45 -811
42 -857 -1 -21 -6 -23 -56 -23 -30 0 -141 11 -247 25 -184 23 -202 28 -371 89
-190 69 -271 115 -502 286 -106 78 -138 96 -290 160 -176 75 -450 197 -683
306 -626 293 -814 357 -1107 379 -199 14 -522 -46 -905 -169 -99 -32 -749
-311 -797 -342 -12 -8 -24 -14 -26 -14 -3 0 2 27 10 60 17 74 6 124 -35 163
-65 63 -164 57 -318 -20 -90 -44 -94 -48 -273 -242 -375 -410 -504 -573 -633
-801 -45 -80 -104 -181 -132 -225 -58 -93 -157 -295 -150 -306 2 -4 0 -10 -5
-13 -5 -3 -12 -23 -16 -43 -5 -21 -9 -42 -11 -48 -4 -16 -15 -75 -25 -135 -5
-30 -12 -128 -16 -217 -4 -114 -10 -163 -18 -163 -24 0 -94 -72 -123 -127 -52
-102 -140 -406 -196 -680 -47 -231 -45 -266 26 -483 84 -257 268 -783 278
-795 19 -23 50 -190 50 -275 1 -77 6 -118 25 -205 3 -16 28 -96 55 -177 58
-175 76 -264 85 -418 5 -80 16 -147 36 -218 16 -57 36 -145 44 -195 52 -304
145 -437 452 -650 90 -62 109 -81 155 -150 29 -44 57 -85 63 -91 26 -30 35
-57 25 -76 -46 -86 77 -387 528 -1285 497 -989 859 -1646 1135 -2060 102 -152
419 -582 556 -755 278 -348 909 -987 1261 -1276 91 -75 213 -169 250 -194 12
-8 28 -20 34 -26 21 -19 190 -140 311 -221 175 -116 422 -271 829 -517 534
-324 643 -392 970 -604 581 -376 746 -463 991 -516 6 -1 19 -5 30 -9 20 -7 50
-11 165 -27 98 -13 589 -5 621 10 26 12 49 47 49 75 0 7 42 36 93 64 209 116
290 177 445 332 152 154 156 155 346 140 161 -13 190 -8 209 38 17 41 310 364
567 626 283 289 461 503 854 1029 234 312 262 346 509 596 117 118 273 287
347 375 74 88 184 216 245 285 189 214 325 389 491 630 43 63 85 127 91 143
10 21 19 27 44 27 61 0 146 65 355 274 492 493 1864 2035 2181 2451 88 117
142 203 155 249 13 47 59 98 205 228 58 51 107 104 114 122 7 17 52 111 100
209 96 196 213 527 245 692 21 110 23 312 7 525 -7 85 -17 223 -23 305 -6 83
-22 229 -35 325 -25 177 -55 481 -100 1025 -24 300 -36 495 -55 935 -13 280
-17 327 -35 402 -18 73 -43 122 -91 179 -20 24 -64 85 -97 134 -33 50 -64 92
-69 93 -4 2 -8 8 -8 14 0 13 -145 225 -181 263 -15 17 -35 57 -45 90 -9 33
-20 67 -24 75 -4 8 -22 56 -40 105 -68 189 -179 371 -355 581 -49 59 -121 153
-158 208 -38 56 -81 114 -95 129 -45 49 -210 168 -358 260 -127 79 -142 92
-163 135 -97 202 -215 292 -310 236 -58 -34 -74 -95 -61 -234 5 -52 11 -143
15 -202 l6 -107 -63 35 c-122 70 -475 240 -513 248 -5 2 -36 15 -68 29 -183
83 -578 212 -772 252 -235 48 -243 49 -535 49 -257 0 -303 -3 -465 -27 -329
-49 -720 -125 -910 -177 -60 -17 -121 -33 -134 -36 -13 -3 -63 -20 -111 -39
-238 -91 -359 -191 -537 -438 -138 -192 -267 -308 -493 -442 -165 -98 -511
-265 -549 -265 -6 0 -11 15 -11 33 0 54 -57 317 -135 622 -96 376 -110 470
-101 685 3 91 9 202 12 246 6 75 5 83 -15 103 -16 16 -32 21 -54 19 -54 -5
-63 -37 -77 -251 -20 -314 -8 -407 105 -852 78 -308 120 -501 131 -602 l6 -61
-98 -31 c-469 -143 -792 -202 -1029 -187 -216 14 -400 59 -706 173 -163 61
-180 69 -174 88 20 70 17 188 -25 900 -22 364 -25 586 -10 615 12 22 1 22 251
-11 132 -17 169 -18 395 -9 562 23 817 46 964 86 82 23 120 61 120 122 0 63
-109 112 -290 130 -155 16 -280 -9 -393 -79 -54 -33 -47 -35 -127 41 -38 36
-52 58 -69 113 -33 107 -45 266 -38 512 7 237 11 269 35 260 49 -19 179 -47
253 -54 49 -6 166 -6 275 -1 178 8 195 11 267 39 42 17 85 35 94 40 10 5 56
28 103 51 121 59 292 176 383 261 75 70 197 228 197 256 0 7 4 13 9 13 12 0
84 178 110 270 11 41 28 116 36 165 9 50 23 124 31 165 32 161 28 577 -7 815
-31 210 -96 555 -130 690 -96 381 -217 595 -483 860 -39 39 -144 163 -232 275
-89 113 -278 346 -422 519 -143 173 -281 349 -306 392 -58 96 -121 244 -227
525 -45 121 -88 231 -95 246 -25 49 -78 63 -109 29z m5070 -6942 c467 -56
1251 -356 1680 -642 191 -128 306 -241 459 -450 77 -106 79 -109 102 -220 14
-62 63 -224 109 -362 123 -366 131 -435 120 -1002 l-8 -375 -34 69 c-48 93
-102 164 -192 252 -72 70 -312 256 -433 336 -50 32 -64 50 -110 133 -75 137
-213 277 -289 295 -31 8 -113 -31 -142 -66 -44 -54 -70 -138 -87 -283 -22
-196 -20 -214 45 -369 64 -156 157 -343 186 -374 11 -11 19 -24 19 -29 0 -5
46 -58 103 -117 206 -217 271 -323 308 -501 11 -55 25 -124 31 -154 7 -30 37
-109 69 -175 120 -257 161 -379 184 -555 16 -118 18 -125 60 -248 14 -40 39
-128 56 -195 35 -139 59 -188 197 -392 146 -216 166 -273 118 -338 -32 -44
-514 -1179 -701 -1652 -83 -209 -133 -355 -176 -513 -28 -104 -73 -186 -541
-982 -195 -333 -429 -731 -518 -885 -90 -154 -183 -308 -206 -342 -24 -34 -44
-67 -44 -73 0 -16 -112 -177 -229 -330 -156 -204 -273 -336 -656 -745 -374
-399 -474 -515 -695 -805 -308 -405 -535 -670 -1198 -1404 -181 -200 -234
-252 -271 -269 -46 -20 -47 -20 -258 -3 -425 35 -731 91 -1225 227 -584 159
-885 281 -1534 617 -693 359 -986 554 -1449 967 -157 140 -848 788 -986 925
-118 117 -339 363 -530 590 -286 340 -422 525 -760 1032 -167 250 -200 293
-236 308 -36 15 -591 782 -973 1345 -314 462 -385 556 -530 700 -40 40 -114
133 -170 215 -79 117 -108 151 -147 175 -96 60 -239 173 -296 234 -103 112
-131 176 -167 381 -11 63 -31 151 -45 195 -15 51 -28 128 -34 210 -6 72 -13
144 -17 160 -3 17 -7 39 -9 50 -10 56 -20 94 -72 250 -53 161 -56 177 -63 310
-8 147 -36 288 -69 353 -16 32 -234 658 -289 832 -30 94 -35 172 -18 267 41
228 137 588 176 662 29 54 24 27 -14 -80 -42 -117 -53 -191 -55 -373 -2 -161
6 -186 64 -186 25 0 38 7 53 28 17 24 20 49 24 202 4 170 5 178 41 280 44 128
65 245 65 367 0 50 5 124 11 165 6 40 20 150 31 245 22 203 36 241 157 444 44
73 104 177 133 229 124 222 248 378 637 801 138 150 160 170 226 202 39 20 92
39 116 43 l44 7 -7 -39 c-4 -21 -20 -70 -35 -109 -21 -54 -25 -78 -19 -105 6
-30 2 -42 -26 -85 -50 -75 -96 -147 -181 -285 -43 -69 -151 -236 -241 -371
-90 -135 -164 -251 -164 -257 0 -14 -115 -172 -183 -251 -58 -68 -59 -83 -10
-210 34 -89 37 -104 37 -201 0 -95 -3 -112 -31 -181 -17 -43 -47 -97 -65 -121
-32 -42 -101 -179 -116 -229 -3 -13 -6 -62 -6 -109 0 -77 4 -94 41 -182 35
-82 172 -341 220 -415 14 -22 14 -22 -18 -13 -80 23 -108 22 -134 -4 -46 -47
-23 -95 57 -116 127 -34 374 -114 386 -125 2 -2 -15 -20 -37 -41 -49 -44 -59
-75 -37 -109 42 -64 147 -2 352 207 160 163 384 458 454 598 18 36 52 95 75
131 38 59 50 69 126 109 46 24 86 47 87 52 2 4 8 8 13 8 23 0 231 151 400 292
91 74 112 88 143 88 28 0 39 -6 53 -27 27 -40 24 -196 -4 -288 -44 -139 -216
-390 -335 -487 -100 -82 -144 -125 -175 -177 -26 -42 -27 -51 -28 -195 -1
-123 -6 -165 -24 -230 -23 -81 -82 -248 -106 -301 -7 -16 -28 -66 -46 -110
-47 -115 -85 -175 -194 -305 -203 -243 -204 -294 -5 -641 191 -332 334 -574
342 -577 4 -2 8 -8 8 -13 0 -14 147 -249 235 -374 109 -156 194 -252 356 -406
159 -150 257 -259 412 -462 59 -76 121 -150 139 -165 187 -152 562 -524 787
-780 83 -94 186 -198 242 -245 162 -135 237 -178 826 -477 165 -84 480 -220
748 -325 195 -76 473 -191 590 -245 44 -21 169 -74 278 -119 300 -124 440
-187 713 -324 268 -134 402 -212 642 -370 137 -91 152 -104 152 -130 0 -59 43
-89 93 -66 22 10 38 2 173 -97 270 -195 402 -306 641 -536 151 -147 172 -159
213 -118 42 42 30 63 -132 227 -84 85 -166 163 -183 174 -16 12 -38 32 -48 45
-17 23 -16 25 181 351 231 382 507 848 684 1153 69 118 169 289 223 380 252
427 468 847 629 1225 208 487 374 853 534 1175 92 184 174 351 183 370 9 19
52 114 96 210 44 96 126 281 183 410 62 140 142 302 198 400 174 300 199 350
267 523 118 298 161 374 298 525 85 92 89 126 16 156 l-36 15 -80 -82 c-88
-90 -153 -172 -153 -193 0 -8 -4 -14 -8 -14 -13 0 -90 -170 -162 -353 -34 -87
-64 -156 -66 -154 -9 9 18 101 46 158 28 55 60 161 60 202 0 13 -8 17 -39 17
l-39 0 -7 -56 c-4 -32 -20 -81 -40 -119 -42 -79 -50 -110 -70 -269 l-16 -129
-71 -126 c-39 -69 -78 -137 -88 -151 -9 -14 -63 -131 -120 -260 -186 -426
-296 -661 -472 -1015 -96 -192 -239 -496 -318 -675 -465 -1053 -706 -1506
-1568 -2947 -202 -337 -370 -613 -374 -613 -5 0 -50 33 -101 72 -51 40 -150
114 -220 163 -69 50 -127 94 -127 100 0 5 34 88 75 185 122 287 194 488 210
587 3 15 9 53 15 83 19 104 25 256 25 590 -1 720 -78 1078 -350 1620 -35 69
-73 135 -84 148 -39 40 -109 19 -114 -35 0 -11 38 -100 85 -199 215 -446 283
-698 319 -1181 16 -226 7 -782 -16 -923 -24 -153 -94 -356 -230 -670 -20 -47
-41 -95 -46 -108 -8 -22 -13 -19 -156 76 -396 265 -686 413 -1348 692 -532
224 -847 364 -852 380 -12 40 -217 530 -306 730 -198 448 -328 699 -727 1400
-234 412 -416 740 -739 1337 l-142 261 -65 259 c-36 142 -90 379 -119 528 -46
231 -57 272 -76 288 -30 24 -68 18 -92 -16 l-21 -27 51 -263 c28 -144 50 -263
49 -264 0 0 -84 150 -186 335 -102 185 -196 349 -208 364 -13 15 -32 28 -42
28 -10 0 -22 5 -25 10 -9 15 -27 12 -54 -9 -23 -17 -23 -19 -7 -42 9 -13 16
-31 16 -41 0 -10 94 -188 208 -396 115 -207 314 -570 442 -807 443 -817 643
-1181 830 -1510 186 -328 279 -505 644 -1230 150 -297 326 -682 394 -866 2 -5
-18 1 -45 12 -935 408 -1199 546 -1401 734 -45 42 -144 147 -219 233 -162 186
-416 442 -638 641 -88 79 -177 167 -198 195 -21 28 -42 53 -47 54 -6 2 -10 8
-10 13 0 12 -120 163 -211 266 -35 40 -133 138 -216 219 -179 171 -248 253
-388 464 -149 225 -605 999 -605 1027 0 6 -12 34 -26 61 -35 68 -26 91 82 223
46 57 96 118 111 136 14 18 31 41 37 51 34 58 79 149 97 195 11 28 26 66 34
82 32 71 107 294 126 372 14 57 21 126 22 211 2 90 7 135 17 153 8 15 47 53
85 85 114 96 175 163 260 284 97 139 159 259 179 350 18 78 21 256 6 311 -26
92 -89 140 -194 146 -86 4 -97 0 -173 -68 -161 -142 -404 -319 -531 -384 -67
-34 -162 -110 -162 -128 0 -4 -8 -16 -17 -27 -10 -10 -44 -67 -76 -127 -60
-112 -233 -358 -334 -473 -123 -141 -174 -161 -299 -115 -42 15 -78 35 -82 44
-3 9 -44 81 -90 161 -47 80 -114 204 -151 275 -60 119 -66 135 -65 190 1 75
21 138 95 293 95 197 113 258 113 387 0 100 -3 119 -35 210 l-35 101 24 24
c37 39 169 222 183 255 8 17 84 136 169 265 86 129 214 329 285 444 135 216
215 317 288 359 23 14 197 92 387 175 253 110 386 163 500 196 359 104 493
129 695 130 285 1 469 -57 1070 -339 278 -130 433 -200 702 -315 165 -71 196
-89 343 -195 358 -256 510 -319 875 -365 50 -6 126 -22 170 -36 44 -14 103
-28 130 -30 29 -2 105 -25 180 -54 735 -289 1049 -296 1900 -41 94 28 184 58
200 66 17 8 86 37 155 66 379 158 699 355 869 536 93 99 87 92 162 198 106
149 228 268 328 319 52 27 212 83 360 127 119 34 499 115 636 134 28 4 54 10
60 13 5 3 23 7 40 9 16 2 75 9 130 17 299 43 552 51 770 25z m1817 -102 c11
-23 31 -56 44 -72 13 -17 31 -49 41 -71 25 -55 26 -56 198 -164 174 -110 285
-192 336 -246 20 -22 65 -82 100 -134 77 -115 60 -92 169 -225 111 -135 196
-257 243 -350 34 -68 129 -313 142 -368 4 -15 17 -35 30 -45 12 -10 25 -27 29
-38 3 -11 44 -76 90 -143 76 -110 83 -125 76 -152 -18 -62 62 -696 93 -735 21
-27 63 -32 93 -10 26 20 25 74 -10 319 -34 247 -33 256 17 192 67 -87 81 -179
97 -655 14 -423 88 -1331 177 -2170 40 -381 49 -645 25 -755 -36 -163 -111
-368 -241 -658 -39 -86 -71 -165 -72 -175 0 -9 -30 -42 -66 -72 -36 -30 -109
-98 -162 -150 -75 -74 -100 -105 -111 -140 -22 -73 -43 -109 -134 -228 -346
-455 -1941 -2241 -2275 -2548 -36 -32 -62 -54 -59 -49 23 42 343 589 590 1009
306 519 428 731 428 740 0 3 20 36 45 73 25 37 45 74 45 84 0 29 105 306 210
554 163 383 334 818 400 1014 34 100 103 280 154 399 l93 217 82 5 c72 4 85 8
102 29 44 54 9 106 -72 106 -36 0 -49 4 -50 15 -6 100 -30 153 -153 334 -135
197 -166 255 -187 353 -11 49 -38 140 -59 205 -26 75 -47 163 -59 250 -28 189
-73 323 -198 588 -44 93 -58 136 -73 226 -10 60 -24 123 -30 140 -7 16 -14 38
-16 49 -6 33 -64 146 -107 209 -22 32 -85 107 -142 166 -170 179 -214 247
-328 517 l-65 152 10 122 c12 142 36 248 60 262 41 26 145 -84 226 -240 38
-74 46 -83 134 -143 204 -141 338 -247 430 -341 94 -95 99 -102 179 -266 45
-92 101 -199 123 -238 43 -73 189 -235 212 -235 8 0 14 -4 14 -8 0 -15 144
-109 177 -116 39 -9 73 20 73 62 -1 35 -13 50 -75 92 -95 63 -177 134 -218
184 l-40 51 6 520 c7 726 -2 815 -114 1135 -71 204 -102 309 -124 423 -9 45
-20 91 -24 102 -5 11 -50 76 -101 145 -96 130 -300 343 -381 398 -26 17 -50
39 -54 49 -4 10 -9 61 -11 113 -7 175 -15 303 -21 348 -7 55 7 51 39 -11z
m-12816 -7368 c44 -63 168 -242 274 -399 309 -454 427 -620 797 -1118 111
-150 213 -277 226 -283 15 -7 84 -100 172 -232 374 -561 651 -933 904 -1217
262 -295 1236 -1223 1609 -1533 383 -319 726 -529 1452 -892 445 -222 604
-290 935 -398 469 -154 1006 -284 1330 -324 77 -9 144 -20 148 -23 14 -12
-203 -209 -303 -275 -52 -35 -157 -96 -233 -135 -76 -40 -143 -81 -150 -91
-11 -18 -27 -19 -228 -19 -232 0 -369 16 -514 60 -130 40 -477 233 -820 455
-318 207 -478 306 -955 595 -939 569 -1199 749 -1677 1163 -83 73 -152 136
-152 140 -1 5 -92 106 -204 225 -873 932 -1139 1276 -1559 2012 -284 497 -781
1456 -1054 2032 -115 244 -129 277 -159 393 l-24 90 52 -56 c29 -30 88 -107
133 -170z" class="color000 svgShape"/><path d="M16255 16752c-17-9-55-35-85-58-80-59-273-174-530-314-363-197-445-266-531-445-28-59-65-132-83-164-55-96-55-141 0-161 42-17 70 6 121 99 118 218 198 326 291 395 26 19 148 89 272 156 464 252 650 379 650 442 0 22-43 68-62 68-7-1-27-9-43-18zM12023 16652c-6-4-16-19-22-33-18-49 3-67 184-151 94-44 253-119 355-167 102-49 223-103 270-121 104-41 174-84 219-136 43-48 98-166 146-309 20-60 44-118 55-129 39-40 110-8 110 49 0 37-89 284-131 366-37 70-101 148-160 192-36 28-105 61-210 103-52 20-177 78-279 129-238 119-460 215-496 215-16 0-34-4-41-8zM14715 14779c-110-63-335-121-475-123-104-1-124 5-230 66-74 43-92 46-120 18-50-50-8-112 113-171 58-28 74-33 137-45 44-9 193-5 245 6 28 6 66 13 85 16 59 10 221 65 285 96 77 39 115 74 115 108 0 63-72 77-155 29z" class="color000 svgShape"/></g></svg></svg>