<svg xmlns="http://www.w3.org/2000/svg" xmlns:svgjs="http://svgjs.com/svgjs" xmlns:xlink="http://www.w3.org/1999/xlink" width="288" height="288"><svg xmlns="http://www.w3.org/2000/svg" xmlns:svgjs="http://svgjs.com/svgjs" xmlns:xlink="http://www.w3.org/1999/xlink" width="288" height="288" viewBox="0 0 288 288"><svg xmlns="http://www.w3.org/2000/svg" width="288" height="288" version="1.0" viewBox="0 0 2859 2859"><g fill="#fff" class="color000 svgShape colorfff" transform="matrix(.1 0 0 -.1 0 2859)"><path d="M13700 26163 c-30 -1 -145 -7 -255 -13 -1630 -87 -3327 -558 -4776-1325 -1081 -573 -2008 -1255 -2860 -2105 -360 -359 -561 -581 -850 -936-1597 -1965 -2515 -4350 -2650 -6889 -15 -284 -15 -919 0 -1200 115 -2148 783
-4167 1964 -5935 461 -690 943 -1273 1542 -1867 1549 -1534 3474 -2610 5605
-3132 677 -166 1364 -269 2135 -322 252 -17 987 -23 1256 -10 1753 83 3343
495 4859 1256 1292 649 2447 1523 3434 2595 1798 1954 2900 4449 3140 7110 36
401 41 523 41 1075 0 648 -11 840 -81 1390 -254 2019 -1108 4000 -2443 5670
-585 732 -1271 1413 -2011 1996 -1381 1088 -2995 1878 -4690 2295 -784 193
-1559 305 -2386 344 -197 9 -828 11 -974 3z m1205 -82 c238 -18 476 -40 660
-62 1394 -165 2733 -566 3995 -1195 1016 -506 1895 -1103 2755 -1869 330 -293
830 -805 1126 -1150 987 -1154 1739 -2468 2210 -3865 350 -1037 544 -2114 567
-3151 18 -800 -26 -1468 -148 -2229 -294 -1840 -1017 -3595 -2105 -5111 -153
-213 -426 -566 -541 -699 -507 -587 -883 -969 -1384 -1401 -1124 -971 -2507
-1760 -3910 -2232 -1029 -346 -1989 -533 -3130 -609 -257 -17 -1161 -17 -1410
0 -1031 71 -1818 209 -2730 479 -1772 525 -3382 1446 -4755 2722 -160 149
-527 521 -688 700 -1449 1599 -2426 3538 -2836 5631 -101 515 -166 1039 -203
1625 -16 258 -16 1002 0 1260 56 893 179 1654 398 2465 44 164 174 593 199
660 8 19 41 114 75 210 335 948 845 1936 1439 2785 393 563 791 1040 1281
1539 1003 1020 2152 1831 3453 2437 1184 552 2487 905 3792 1028 116 11 296
25 400 31 105 6 210 12 235 14 97 8 1113 -3 1255 -13z" class="color000 svgShape"/><path d="M13652 25303 c-27 -5 -26 -9 15 -158 57 -207 166 -448 274 -605 32
-47 111 -148 175 -225 458 -547 667 -806 901 -1115 251 -331 317 -439 381
-620 95 -271 192 -897 192 -1244 0 -272 -68 -572 -180 -796 -172 -342 -443
-545 -915 -685 -109 -33 -315 -45 -417 -26 -87 17 -196 50 -203 61 -6 10 54
301 86 410 27 96 84 183 172 266 78 73 78 73 61 99 -9 14 -19 25 -23 25 -19 0
-156 -140 -198 -203 -57 -84 -79 -151 -129 -382 -20 -93 -40 -174 -45 -179
-22 -24 -315 193 -498 369 -144 139 -262 329 -291 470 -18 85 -8 154 59 445
61 261 94 366 154 487 83 165 120 338 120 563 0 149 -4 184 -37 360 -39 208
-121 548 -180 745 -79 263 -96 375 -90 605 9 354 35 525 123 795 43 134 54
155 129 246 37 46 97 122 132 167 l64 84 -25 19 c-32 25 -34 24 -60 -13 -37
-52 -160 -209 -197 -252 -44 -50 -80 -131 -125 -281 -80 -269 -97 -388 -104
-720 -6 -292 5 -404 57 -570 100 -319 212 -800 241 -1035 28 -230 -16 -493
-117 -701 -70 -143 -105 -259 -181 -604 -49 -224 -51 -321 -5 -443 54 -145
160 -300 289 -423 157 -149 366 -310 471 -363 28 -14 52 -30 52 -34 0 -4 -9
-37 -19 -74 -53 -184 -60 -457 -17 -680 30 -156 54 -226 98 -281 16 -21 28
-41 25 -43 -12 -12 -360 -54 -447 -54 -52 0 -151 9 -218 21 -116 20 -126 20
-165 5 -51 -20 -82 -62 -98 -136 -16 -72 -4 -630 18 -865 8 -93 16 -262 17
-375 1 -178 -1 -209 -16 -237 -10 -18 -26 -36 -35 -41 -22 -13 -97 8 -348 98
-110 40 -256 92 -323 116 -212 74 -297 119 -522 273 -117 80 -211 129 -375
196 -237 96 -392 163 -610 265 -366 169 -719 298 -926 336 -129 24 -399 24
-527 1 -338 -63 -1092 -353 -1302 -501 -35 -25 -66 -43 -68 -41 -2 2 6 41 17
86 43 169 19 219 -103 219 -111 0 -247 -61 -344 -154 -63 -60 -292 -322 -526
-601 -146 -175 -264 -350 -355 -527 -101 -199 -126 -283 -156 -545 -39 -340
-34 -322 -152 -510 -157 -250 -253 -566 -253 -832 0 -189 34 -339 130 -581 61
-153 75 -197 115 -376 13 -61 44 -173 69 -250 58 -183 64 -211 76 -347 11
-124 24 -197 64 -347 14 -52 39 -171 55 -265 17 -93 42 -210 56 -258 14 -48
43 -157 65 -243 65 -256 128 -353 320 -491 162 -116 220 -181 307 -344 87
-162 104 -205 149 -372 19 -71 47 -161 61 -200 29 -80 162 -381 251 -567 33
-69 103 -224 157 -345 245 -557 459 -953 924 -1710 351 -572 656 -987 986
-1345 248 -269 678 -675 920 -870 630 -507 1814 -1250 3125 -1960 247 -133
247 -133 360 -159 246 -57 574 -54 717 5 57 24 107 61 373 275 340 273 393
304 560 334 119 22 218 63 295 125 55 43 627 612 723 719 154 170 492 599 711
901 127 174 206 265 442 505 119 121 285 301 369 400 152 177 443 561 613 805
162 232 156 226 341 359 41 30 124 98 183 151 136 121 713 733 1048 1110 66
74 156 173 201 220 151 159 270 291 499 554 230 266 295 348 413 526 143 217
316 436 443 560 107 105 154 174 249 371 144 299 197 553 207 999 6 260 -4
458 -33 675 -8 61 -21 159 -29 219 -57 425 -133 1294 -175 2016 -6 102 -18
208 -25 235 -10 32 -36 77 -75 125 -33 41 -81 115 -107 164 -26 49 -62 105
-80 124 -77 82 -175 266 -275 517 -60 152 -149 330 -216 430 -87 132 -255 317
-454 503 -185 174 -253 226 -364 282 -87 44 -169 125 -219 215 -21 39 -45 78
-53 88 -18 21 -50 22 -79 2 -62 -44 -81 -297 -37 -513 l7 -33 -94 61 c-314
204 -926 430 -1379 509 -399 71 -892 67 -1265 -8 -320 -65 -868 -231 -1029
-312 -142 -72 -213 -133 -345 -299 -152 -192 -249 -278 -486 -432 -320 -208
-543 -328 -617 -331 -48 -2 -55 10 -57 98 -1 68 -94 550 -165 860 -25 106 -26
123 -26 438 l0 327 -36 0 -35 0 3 -352 4 -353 31 -125 c60 -240 149 -705 158
-831 l7 -87 -58 -22 c-150 -56 -333 -112 -484 -147 l-165 -38 -325 0 -325 0
-230 53 c-151 34 -270 67 -345 97 -155 61 -146 53 -124 111 16 42 19 75 18
229 0 99 -9 266 -19 370 -23 248 -28 877 -6 917 25 48 51 54 154 34 149 -29
280 -31 462 -7 160 21 387 48 650 77 240 26 367 45 402 59 29 12 34 19 31 42
-4 37 -50 59 -153 74 -149 21 -313 -4 -468 -72 -89 -39 -126 -45 -163 -26 -36
19 -77 90 -98 172 -27 106 -56 308 -56 392 0 174 50 441 82 436 7 -2 56 -15
108 -29 136 -38 327 -44 462 -15 106 22 324 100 455 162 386 184 629 521 732
1016 58 282 51 621 -24 1059 -110 639 -150 740 -472 1169 -250 335 -488 630
-963 1195 -139 166 -224 294 -297 446 -55 117 -130 329 -154 437 -6 31 -17 56
-23 56 -6 -1 -21 -4 -34 -6z m878 -6463 c0 -5 -6 -10 -12 -10 -7 0 -69 -7
-138 -15 -147 -17 -178 -19 -164 -6 28 28 314 56 314 31z m4165 -405 c288 -34
501 -82 805 -184 565 -190 852 -353 1189 -676 154 -147 247 -282 285 -416 9
-30 25 -117 36 -194 25 -174 57 -287 122 -429 79 -173 78 -166 89 -521 11
-318 4 -825 -11 -825 -21 0 -65 81 -92 168 -37 120 -80 202 -133 256 -22 22
-94 77 -160 121 -325 217 -406 293 -486 451 -79 158 -185 264 -263 264 -36 0
-90 -52 -115 -110 -29 -67 -69 -205 -83 -290 -17 -97 -2 -149 97 -347 141
-284 228 -413 398 -590 139 -146 148 -166 237 -552 15 -67 41 -132 85 -220 47
-93 70 -155 90 -236 14 -60 50 -195 80 -300 29 -104 63 -237 75 -295 53 -256
118 -389 275 -562 119 -131 121 -177 12 -428 -75 -175 -104 -253 -172 -470
-68 -219 -224 -618 -433 -1110 -55 -129 -123 -300 -152 -380 -62 -172 -65
-178 -145 -300 -88 -136 -331 -546 -400 -675 -194 -366 -727 -1211 -842 -1336
-21 -23 -23 -30 -12 -47 11 -17 5 -31 -51 -113 -107 -157 -427 -587 -528 -709
-199 -240 -282 -331 -497 -550 -242 -246 -278 -289 -475 -555 -214 -289 -459
-601 -621 -790 -42 -49 -232 -243 -420 -430 -301 -298 -353 -345 -414 -377
-38 -20 -84 -39 -102 -43 -61 -13 -435 28 -789 85 -719 117 -1189 257 -1794
535 -875 402 -1679 979 -2505 1800 -511 508 -852 901 -1435 1655 -96 124 -226
293 -290 375 -375 484 -537 701 -712 950 -118 169 -448 663 -553 830 -58 91
-100 141 -253 295 -178 181 -184 189 -252 313 -38 71 -83 147 -99 171 -41 60
-135 144 -241 217 -102 70 -165 135 -216 225 -33 59 -45 101 -159 539 -13 50
-32 146 -44 215 -11 69 -39 195 -60 281 -23 91 -44 203 -50 270 -15 157 -26
217 -66 339 -51 158 -73 236 -100 361 -29 129 -48 188 -110 339 -24 58 -59
160 -77 225 -32 117 -33 124 -32 310 0 179 2 197 31 307 38 143 112 329 167
423 52 88 57 68 18 -68 -52 -175 -82 -412 -67 -531 7 -56 8 -57 36 -54 l29 3
4 155 c5 163 17 242 67 420 34 121 70 323 94 525 40 342 46 375 76 462 55 157
173 374 292 538 28 39 120 153 206 255 349 416 490 568 560 605 101 52 235 73
248 39 18 -48 -74 -318 -131 -385 -30 -37 -304 -470 -606 -963 l-153 -249 16
-106 c23 -141 22 -312 -2 -426 -10 -49 -40 -142 -66 -205 -120 -288 -111 -341
140 -807 46 -85 62 -123 52 -123 -8 0 -48 12 -89 26 -40 14 -81 28 -90 31 -13
4 -21 -3 -28 -22 -6 -15 -8 -30 -5 -34 7 -12 115 -50 218 -76 51 -13 104 -28
119 -34 15 -6 57 -13 93 -17 36 -4 65 -10 65 -14 0 -13 -63 -62 -98 -77 -17
-7 -32 -15 -32 -17 0 -1 5 -17 11 -35 l11 -31 61 32 c76 41 230 197 388 393
62 77 149 185 194 240 44 55 98 129 120 163 94 149 120 178 232 253 142 95
199 138 376 289 81 69 158 133 171 143 21 17 24 17 67 -1 39 -17 118 -89 119
-110 1 -4 5 -27 10 -52 10 -57 -3 -142 -34 -211 -28 -62 -198 -328 -252 -395
-20 -24 -71 -73 -113 -108 -113 -93 -141 -150 -152 -310 -16 -221 -49 -339
-164 -585 -126 -269 -217 -421 -303 -509 -66 -66 -73 -77 -82 -119 -19 -82 20
-179 164 -406 47 -75 112 -189 144 -254 69 -140 121 -226 255 -428 186 -280
256 -366 493 -600 242 -240 295 -300 399 -450 133 -193 242 -308 425 -449 175
-135 322 -277 461 -447 243 -295 506 -509 928 -754 257 -149 609 -303 1234
-540 241 -91 494 -197 742 -310 241 -111 866 -426 1039 -525 452 -259 848
-558 1229 -929 l148 -145 25 25 24 25 -137 135 c-76 74 -178 172 -228 216
l-90 82 20 38 c11 20 71 113 133 206 62 93 179 275 259 405 80 131 229 370
331 532 102 162 230 366 284 452 153 245 359 609 499 883 181 354 301 628 465
1065 32 85 112 263 179 395 148 294 227 467 295 650 85 224 177 425 317 685
87 163 119 229 196 411 30 69 80 168 112 220 31 52 79 129 105 172 27 43 63
113 80 155 106 254 206 437 279 506 36 35 38 46 11 71 -20 18 -21 18 -56 -16
-81 -79 -170 -233 -275 -479 -54 -126 -111 -234 -150 -280 l-21 -25 5 55 c4
36 19 84 47 141 26 55 43 106 47 141 l6 55 -32 5 c-33 5 -34 3 -46 -67 -3 -22
-24 -76 -45 -120 -33 -67 -41 -97 -50 -180 -6 -55 -16 -125 -22 -155 -14 -75
-144 -376 -233 -540 -146 -270 -263 -520 -329 -702 -63 -172 -139 -341 -258
-578 -140 -275 -182 -370 -276 -620 -244 -646 -529 -1204 -994 -1944 -94 -149
-276 -440 -403 -646 -206 -331 -479 -759 -527 -822 l-16 -23 -29 26 c-39 36
-229 181 -338 258 -49 36 -94 67 -98 71 -4 4 17 54 47 111 70 133 119 253 145
354 33 131 99 473 110 577 16 140 14 594 -4 798 -43 505 -67 630 -171 862 -24
54 -62 150 -84 214 -48 140 -87 215 -145 280 l-43 49 -24 -23 c-16 -16 -20
-26 -13 -36 6 -7 27 -35 47 -62 47 -61 72 -114 113 -234 18 -52 58 -155 89
-228 94 -217 115 -322 156 -752 25 -274 28 -751 5 -905 -28 -187 -96 -500
-130 -603 -32 -95 -146 -335 -165 -347 -4 -3 -62 29 -129 70 -209 130 -415
241 -796 430 -562 278 -877 416 -1307 574 -416 153 -886 360 -1113 491 -417
240 -697 467 -928 754 -109 135 -264 288 -417 410 -239 190 -328 281 -440 446
-106 158 -181 244 -410 470 -242 240 -310 322 -480 575 -138 207 -219 342
-271 452 -23 48 -88 162 -144 253 -118 189 -138 228 -155 289 -16 61 -8 82 57
148 83 86 163 214 273 438 161 328 195 434 210 645 13 202 27 234 147 332 84
69 151 154 268 339 117 184 137 233 143 345 4 75 1 104 -13 141 -34 88 -128
164 -222 179 -37 6 -42 3 -103 -53 -175 -158 -430 -358 -534 -418 -71 -42
-143 -119 -209 -226 -32 -52 -86 -128 -120 -170 -34 -42 -124 -152 -199 -245
-189 -233 -193 -237 -273 -242 -108 -7 -155 4 -195 47 -19 21 -44 55 -55 77
-11 21 -60 113 -109 204 -133 247 -140 266 -140 385 0 97 1 103 48 214 26 63
56 141 66 175 41 135 50 312 25 501 l-15 109 151 246 c472 767 553 893 628
973 169 178 317 259 799 441 262 98 483 169 617 197 147 31 400 33 550 5 187
-35 569 -173 850 -306 152 -72 447 -201 625 -272 148 -59 290 -131 380 -191
36 -24 108 -73 162 -109 108 -73 218 -124 424 -197 76 -27 236 -84 354 -126
153 -55 234 -79 280 -82 47 -4 106 -21 210 -62 80 -32 179 -65 220 -74 41 -9
149 -33 240 -54 l165 -38 320 0 c271 0 333 3 405 18 203 44 367 90 511 143 91
33 182 60 222 65 112 13 328 126 682 357 233 151 337 244 481 427 176 224 267
286 569 384 446 146 829 238 1100 264 117 11 560 6 680 -8z m1827 -127 c45
-86 136 -175 228 -222 124 -65 177 -106 370 -288 366 -346 488 -516 645 -903
85 -208 139 -319 210 -430 44 -70 63 -107 59 -122 -14 -51 76 -746 99 -769 11
-11 57 9 57 25 0 9 -11 84 -25 166 -27 167 -66 487 -59 494 5 6 4 7 49 -69 21
-36 56 -84 78 -108 56 -62 75 -113 82 -217 46 -725 58 -883 96 -1320 29 -331
57 -594 85 -800 59 -436 58 -424 59 -785 0 -282 -3 -369 -18 -475 -31 -216
-74 -366 -163 -568 -78 -176 -147 -282 -254 -387 -120 -119 -329 -380 -422
-529 -40 -63 -109 -163 -155 -223 -93 -122 -477 -565 -662 -763 -66 -71 -210
-229 -318 -350 -364 -406 -918 -992 -1042 -1103 -153 -136 -303 -242 -226
-158 44 48 305 454 305 475 0 7 69 128 154 269 84 142 173 293 197 337 141
263 397 690 479 800 27 36 53 94 90 204 29 85 110 290 180 455 237 559 344
839 458 1196 33 102 83 239 112 305 29 66 59 135 67 154 12 27 18 32 36 26 12
-3 50 -9 85 -12 l63 -6 -3 34 c-3 33 -4 34 -55 39 -75 8 -93 28 -93 107 0 82
-18 117 -117 225 -132 145 -193 271 -243 503 -30 138 -42 187 -85 330 -14 49
-42 155 -61 235 -28 113 -49 172 -96 270 -73 150 -91 202 -108 300 -19 116
-68 278 -103 345 -18 34 -69 99 -118 150 -162 168 -233 267 -347 480 -100 190
-144 289 -150 342 -5 48 18 159 58 280 28 84 60 133 87 133 8 0 41 -25 73 -56
45 -43 72 -82 111 -158 28 -55 70 -125 92 -154 49 -65 172 -163 398 -318 94
-65 181 -132 195 -149 31 -41 88 -167 103 -229 17 -71 41 -112 111 -191 34
-38 71 -87 82 -109 11 -21 51 -69 90 -107 67 -66 222 -179 244 -179 10 0 39
50 32 55 -179 121 -280 211 -312 280 -18 37 -19 59 -13 320 7 330 -7 907 -24
985 -6 30 -38 113 -69 185 -82 186 -101 254 -134 497 -35 247 -141 411 -436
673 l-116 103 -28 88 c-22 71 -29 115 -33 214 -5 123 8 240 27 240 5 0 24 -28
42 -62z m-12881 -7255 c97 -100 134 -148 244 -318 262 -406 515 -775 740
-1080 231 -312 984 -1282 1219 -1570 481 -591 1068 -1199 1570 -1629 784 -672
1553 -1140 2405 -1463 507 -192 1049 -315 1791 -406 l104 -13 -59 -33 c-78
-44 -152 -100 -425 -320 -124 -100 -247 -192 -275 -206 -139 -68 -444 -74
-710 -13 -75 17 -123 38 -285 126 -1369 739 -2615 1523 -3215 2022 -381 317
-884 824 -1156 1165 -270 338 -479 650 -889 1330 -261 432 -524 932 -690 1310
-103 236 -118 270 -192 425 -126 263 -230 508 -262 614 -42 138 -50 176 -38
176 5 0 60 -53 123 -117z" class="color000 svgShape"/><path d="M16245 16709c-24-25-75-57-130-84-49-23-121-68-160-98-52-42-112-75-241-132-440-193-575-315-635-573-11-48-32-104-46-126l-25-38 23-24c18-19 25-21 36-12 26 21 62 105 77 178 32 151 89 236 224 332 106 75 192 122 342 186 166 71 228 104 290 155 30 25 95 64 144 88 55 27 111 63 145 95 56 52 56 52 37 73-27 29-36 27-81-20zM12057 16612c-10-10-17-23-17-28 0-42 355-226 511-265 160-39 449-188 521-268 67-75 125-193 133-271 9-89 21-122 54-154l28-27 22 27c18 23 19 28 6 38-24 18-45 82-45 137 0 86-95 257-186 338-65 57-385 213-494 241-77 20-283 105-370 153-19 10-58 37-87 58-29 21-54 39-56 39-2 0-11-8-20-18zM14734 14769c-68-47-195-106-259-120-37-8-127-14-235-14-173 0-176 0-222 27-25 16-56 40-67 54-20 25-22 26-46 10-14-9-25-22-25-28 0-19 74-83 126-109 46-23 59-24 224-24 257 0 342 22 517 131 61 38 71 48 64 63-21 38-34 40-77 10zM9553 14473c-13-9-23-19-23-24 0-4 34-60 75-123 270-414 545-897 855-1501 56-110 135-263 175-340 73-142 180-350 385-750 62-121 152-296 200-390 48-93 138-269 200-390 62-121 154-301 205-400 51-99 152-297 225-440 162-317 312-609 316-614 4-5 64 20 64 26 0 3-29 60-64 127-35 66-125 243-201 391-140 276-269 527-425 830-48 94-138 269-200 390-105 205-162 316-390 760-48 94-134 260-190 370-209 407-284 553-357 692-82 158-84 163-189 588-102 412-154 609-163 618-5 4-20 5-35 1-22-5-27-11-23-28 3-11 46-183 96-381 49-198 88-361 86-363-2-2-16 18-31 45-178 314-516 867-553 905-14 15-18 15-38 1z" class="color000 svgShape"/></g></svg></svg></svg>